# Blender v2.90.1 OBJ File: 'second-mesh-evah.blend'
# www.blender.org
mtllib mesh-less-faces.mtl
o Cube
v 50.000000 -5.000000 -5.000000
v 50.000000 5.000000 -5.000000
v 50.000000 -5.000000 5.000000
v 50.000000 5.000000 5.000000
v -50.000000 -5.000000 -5.000000
v -50.000000 5.000000 -5.000000
v -50.000000 -5.000000 5.000000
v -50.000000 5.000000 5.000000
v 43.244396 5.000000 -5.000000
v 26.577728 5.000000 -5.000000
v 9.911064 5.000000 -5.000000
v -6.755602 5.000000 -5.000000
v -23.422268 5.000000 -5.000000
v 43.244396 -5.000000 5.000000
v 26.577728 -5.000000 5.000000
v 9.911064 -5.000000 5.000000
v -6.755602 -5.000000 5.000000
v -23.422268 -5.000000 5.000000
v -23.422264 5.000000 5.000000
v -2.202676 5.455293 5.000000
v 5.358145 5.455293 5.000000
v 26.577736 5.000000 5.000000
v 43.244400 5.000000 5.000000
v -23.422264 -5.000000 -5.000000
v -6.755599 -5.000000 -5.000000
v 9.911068 -5.000000 -5.000000
v 26.577736 -5.000000 -5.000000
v 43.244400 -5.000000 -5.000000
v 18.244400 8.980721 5.000000
v 18.244396 8.980721 -5.000000
v 41.217316 41.805325 -9.194942
v 27.079958 41.805325 -0.368114
v 32.376057 41.805325 8.114297
v 52.046692 41.805325 -0.712530
v 34.911064 5.000000 -5.000000
v 34.148636 41.805325 -4.781528
v 27.079958 23.402662 -0.368114
v 41.217316 23.402662 -9.194942
v 34.911068 5.000000 5.000000
v 43.244396 5.000000 0.000000
v 39.444736 41.805325 3.700883
v 43.865364 41.805325 -4.953736
v 29.476896 23.402662 6.557149
v 44.878906 23.402662 2.143735
v 42.230858 14.201331 -7.097471
v 41.217316 32.603992 -9.194942
v 9.911064 57.035770 -5.000000
v -6.755602 57.035770 -5.000000
v -14.819166 56.580475 5.000000
v 5.358145 56.580475 5.000000
v -6.755599 5.000000 5.000000
v 9.911068 5.000000 5.000000
v -6.755599 57.035770 5.000000
v 9.911068 57.035770 5.000000
v -6.755599 5.000000 5.000000
v 9.911068 5.000000 5.000000
v -6.755599 57.035770 5.000000
v 9.911068 57.035770 5.000000
v -6.755599 5.000000 5.000000
v 9.911068 5.000000 5.000000
v -6.755599 57.035770 5.000000
v 9.911068 57.035770 5.000000
v -2.202676 5.455293 15.198507
v 5.358145 5.455293 15.198507
v -14.819166 56.580475 15.198507
v 5.358145 56.580475 15.198507
v -14.819166 75.153786 5.000000
v 5.358145 75.153786 5.000000
v -14.819166 75.153786 15.198507
v 5.358145 75.153786 15.198507
v -14.819166 56.580475 10.099254
v -14.819166 75.153786 10.099254
v -14.819166 65.867126 5.000000
v -14.819166 65.867126 15.198507
v 52.046692 78.636749 -0.712530
v 39.444736 78.636749 3.700883
v 43.865364 78.636749 -4.953736
vt 0.808556 0.500000
vt 0.808556 0.750000
vt 0.875000 0.750000
vt 0.875000 0.500000
vt 0.375000 0.933556
vt 0.375000 1.000000
vt 0.625000 1.000000
vt 0.625000 0.933556
vt 0.375000 0.000000
vt 0.375000 0.250000
vt 0.625000 0.250000
vt 0.625000 0.000000
vt 0.358111 0.500000
vt 0.358111 0.625000
vt 0.358111 0.750000
vt 0.375000 0.750000
vt 0.375000 0.500000
vt 0.625000 0.750000
vt 0.625000 0.500000
vt 0.375000 0.483111
vt 0.625000 0.483111
vt 0.375000 0.316444
vt 0.625000 0.316444
vt 0.375000 0.358111
vt 0.625000 0.358111
vt 0.375000 0.399778
vt 0.625000 0.399778
vt 0.375000 0.420611
vt 0.375000 0.441444
vt 0.625000 0.441444
vt 0.375000 0.462278
vt 0.125000 0.500000
vt 0.125000 0.750000
vt 0.191444 0.750000
vt 0.191444 0.500000
vt 0.233111 0.750000
vt 0.233111 0.500000
vt 0.233111 0.750000
vt 0.233111 0.500000
vt 0.274778 0.500000
vt 0.274778 0.750000
vt 0.295611 0.750000
vt 0.316444 0.750000
vt 0.316444 0.500000
vt 0.295611 0.500000
vt 0.316444 0.750000
vt 0.316444 0.750000
vt 0.316444 0.500000
vt 0.316444 0.500000
vt 0.375000 0.766889
vt 0.625000 0.766889
vt 0.375000 0.787722
vt 0.375000 0.808556
vt 0.625000 0.808556
vt 0.375000 0.829389
vt 0.375000 0.850222
vt 0.625000 0.850222
vt 0.375000 0.891889
vt 0.625000 0.891889
vt 0.641889 0.750000
vt 0.641889 0.500000
vt 0.683556 0.750000
vt 0.683556 0.500000
vt 0.725222 0.750000
vt 0.725222 0.500000
vt 0.766889 0.750000
vt 0.766889 0.500000
vt 0.337278 0.750000
vt 0.337278 0.750000
vt 0.358111 0.625000
vt 0.358111 0.625000
vt 0.358111 0.500000
vt 0.358111 0.500000
vt 0.358111 0.500000
vt 0.358111 0.500000
vt 0.358111 0.750000
vt 0.358111 0.750000
vt 0.375000 0.441444
vt 0.375000 0.441444
vt 0.375000 0.462278
vt 0.375000 0.483111
vt 0.375000 0.483111
vt 0.375000 0.483111
vt 0.375000 0.483111
vt 0.375000 0.766889
vt 0.375000 0.766889
vt 0.375000 0.787722
vt 0.375000 0.808556
vt 0.375000 0.808556
vt 0.337278 0.500000
vt 0.274778 0.750000
vt 0.274778 0.500000
vt 0.375000 0.358111
vt 0.375000 0.399778
vt 0.375000 0.880507
vt 0.375000 0.880507
vt 0.375000 0.880507
vt 0.375000 0.861605
vt 0.375000 0.861605
vt 0.375000 0.891889
vt 0.375000 0.850222
vt 0.375000 0.850222
vt 0.375000 0.850222
vt 0.375000 0.891889
vt 0.375000 0.891889
vt nan nan
vt nan nan
vt nan nan
vt nan nan
vt nan nan
vt nan nan
vt nan nan
vt nan nan
vt 0.375000 0.891889
vt 0.375000 0.850222
vt 0.375000 0.850222
vt 0.375000 0.891889
vt nan nan
vt nan nan
vt nan nan
vt nan nan
vt nan nan
vt nan nan
vt nan nan
vt nan nan
vt 0.375000 0.880507
vt 0.375000 0.861605
vt 0.375000 0.861605
vt 0.375000 0.861605
vt 0.375000 0.880507
vt 0.375000 0.880507
vt 0.375000 0.880507
vt 0.375000 0.880507
vt 0.375000 0.880507
vt 0.375000 0.861605
vt 0.375000 0.880507
vt 0.358111 0.750000
vt 0.375000 0.766889
vt 0.375000 0.787722
vn 0.0000 -1.0000 0.0000
vn 0.0000 0.0000 1.0000
vn -1.0000 0.0000 0.0000
vn 0.0000 1.0000 0.0000
vn 1.0000 0.0000 0.0000
vn 0.0000 0.0000 -1.0000
vn -0.9529 0.0604 0.2974
vn -0.8906 0.0000 -0.4549
vn 0.9110 -0.0926 -0.4018
vn -0.4090 -0.0000 -0.9125
vn 0.2543 -0.0067 0.9671
vn -0.9709 -0.2396 0.0000
vn 0.4602 0.0000 -0.8878
vn 0.3305 0.0000 0.9438
usemtl Material
s off
f 24/1/1 18/2/1 7/3/1 5/4/1
f 19/5/2 8/6/2 7/7/2 18/8/2
f 8/9/3 6/10/3 5/11/3 7/12/3
f 9/13/4 40/14/4 23/15/4 4/16/4 2/17/4
f 2/17/5 4/16/5 3/18/5 1/19/5
f 9/20/6 2/17/6 1/19/6 28/21/6
f 6/10/6 13/22/6 24/23/6 5/11/6
f 13/22/6 12/24/6 25/25/6 24/23/6
f 12/24/6 11/26/6 26/27/6 25/25/6
f 11/26/6 30/28/6 10/29/6 27/30/6 26/27/6
f 10/29/6 35/31/6 9/20/6 28/21/6 27/30/6
f 6/32/4 8/33/4 19/34/4 13/35/4
f 13/35/4 19/34/4 51/36/4 12/37/4
f 51/36/3 53/38/3 48/39/3 12/37/3
f 11/40/4 52/41/4 29/42/4 22/43/4 10/44/4 30/45/4
f 22/43/7 43/46/7 33/47/7 32/48/7 37/49/7 10/44/7
f 4/16/2 23/50/2 14/51/2 3/18/2
f 23/50/2 39/52/2 22/53/2 15/54/2 14/51/2
f 22/53/2 29/55/2 52/56/2 16/57/2 15/54/2
f 52/56/2 51/58/2 17/59/2 16/57/2
f 51/58/2 19/5/2 18/8/2 17/59/2
f 1/19/1 3/18/1 14/60/1 28/61/1
f 28/61/1 14/60/1 15/62/1 27/63/1
f 27/63/1 15/62/1 16/64/1 26/65/1
f 26/65/1 16/64/1 17/66/1 25/67/1
f 25/67/1 17/66/1 18/2/1 24/1/1
f 41/68/8 76/69/8 77/70/8 42/71/8
f 9/13/9 45/72/9 38/73/9 46/74/9 31/75/9 42/71/9 34/76/9 44/77/9 23/15/9 40/14/9
f 35/31/10 10/29/10 37/78/10 32/79/10 36/80/10 31/81/10 46/82/10 38/83/10 45/84/10 9/20/10
f 39/52/11 23/50/11 44/85/11 34/86/11 41/87/11 33/88/11 43/89/11 22/53/11
f 32/48/4 33/47/4 41/68/4 42/71/4 31/75/4 36/90/4
f 48/39/4 53/38/4 54/91/4 47/92/4
f 11/40/5 47/92/5 54/91/5 52/41/5
f 12/24/6 48/93/6 47/94/6 11/26/6
f 49/95/6 73/96/6 67/97/6 68/98/6 50/99/6
f 55/100/2 51/58/2 52/56/2 56/101/2
f 58/102/2 54/103/2 53/104/2 57/105/2
f 57/106/2 53/107/2 51/108/2 55/109/2
f 56/110/2 52/111/2 54/112/2 58/113/2
f 59/114/2 55/100/2 56/101/2 60/115/2
f 62/116/2 58/102/2 57/105/2 61/117/2
f 61/118/2 57/119/2 55/120/2 59/121/2
f 60/122/2 56/123/2 58/124/2 62/125/2
f 20/126/2 59/114/2 60/115/2 21/127/2
f 50/99/2 62/116/2 61/117/2 49/95/2
f 49/95/6 61/117/6 59/114/6 20/126/6
f 21/127/2 60/115/2 62/116/2 50/99/2
f 64/128/2 66/129/2 65/130/2 63/131/2
f 20/126/12 63/131/12 65/130/12 71/132/12 49/95/12
f 21/127/1 64/128/1 63/131/1 20/126/1
f 50/99/5 66/129/5 64/128/5 21/127/5
f 67/97/4 72/133/4 69/134/4 70/135/4 68/98/4
f 50/99/5 68/98/5 70/135/5 66/129/5
f 66/129/2 70/135/2 69/134/2 74/136/2 65/130/2
f 71/132/3 65/130/3 74/136/3 69/134/3 72/133/3 67/97/3 73/96/3 49/95/3
f 76/69/4 75/137/4 77/70/4
f 42/71/13 77/70/13 75/137/13 34/76/13
f 34/86/14 75/138/14 76/139/14 41/87/14
